<svg xmlns="http://www.w3.org/2000/svg" width="191" height="30" fill="none"><path fill="#F38160" d="M16 3.872V7.94H5.524v6.444h8.028v3.996H5.524V29H.484V3.872H16Zm6.13 2.808c-.888 0-1.632-.276-2.232-.828-.576-.576-.864-1.284-.864-2.124 0-.84.288-1.536.864-2.088.6-.576 1.344-.864 2.232-.864.888 0 1.62.288 2.196.864.6.552.9 1.248.9 2.088 0 .84-.3 1.548-.9 2.124-.576.552-1.308.828-2.196.828Zm2.484 2.376V29h-5.04V9.056h5.04Zm16.031-.288c2.376 0 4.296.756 5.76 2.268 1.464 1.488 2.196 3.576 2.196 6.264V29h-5.04V17.984c0-1.584-.396-2.796-1.188-3.636-.792-.864-1.872-1.296-3.24-1.296-1.392 0-2.496.432-3.312 1.296-.792.84-1.188 2.052-1.188 3.636V29h-5.04V9.056h5.04v2.484a6.833 6.833 0 0 1 2.556-2.016c1.056-.504 2.208-.756 3.456-.756Zm31.29 9.828c0 .72-.049 1.368-.145 1.944H57.21c.12 1.44.624 2.568 1.512 3.384.888.816 1.98 1.224 3.276 1.224 1.872 0 3.204-.804 3.996-2.412h5.436c-.576 1.92-1.68 3.504-3.312 4.752-1.632 1.224-3.636 1.836-6.012 1.836-1.92 0-3.648-.42-5.184-1.26-1.512-.864-2.7-2.076-3.564-3.636-.84-1.56-1.26-3.36-1.26-5.4 0-2.064.42-3.876 1.26-5.436.84-1.56 2.016-2.76 3.528-3.6 1.512-.84 3.252-1.26 5.22-1.26 1.896 0 3.588.408 5.076 1.224a8.444 8.444 0 0 1 3.492 3.492c.84 1.488 1.26 3.204 1.26 5.148Zm-5.22-1.44c-.025-1.296-.493-2.328-1.405-3.096-.912-.792-2.028-1.188-3.348-1.188-1.248 0-2.304.384-3.168 1.152-.84.744-1.356 1.788-1.548 3.132h9.468Zm16.53 12.168c-1.632 0-3.096-.288-4.392-.864-1.296-.6-2.328-1.404-3.096-2.412a6.138 6.138 0 0 1-1.224-3.348h5.076c.096.768.468 1.404 1.116 1.908.672.504 1.5.756 2.484.756.96 0 1.704-.192 2.232-.576.552-.384.828-.876.828-1.476 0-.648-.336-1.128-1.008-1.44-.648-.336-1.692-.696-3.132-1.08-1.488-.36-2.712-.732-3.672-1.116a6.527 6.527 0 0 1-2.448-1.764C75.337 17.12 75 16.052 75 14.708c0-1.104.312-2.112.936-3.024.648-.912 1.56-1.632 2.736-2.16 1.2-.528 2.604-.792 4.212-.792 2.376 0 4.272.6 5.688 1.8 1.416 1.176 2.196 2.772 2.34 4.788h-4.824c-.072-.792-.408-1.416-1.008-1.872-.576-.48-1.356-.72-2.34-.72-.912 0-1.62.168-2.124.504-.48.336-.72.804-.72 1.404 0 .672.336 1.188 1.008 1.548.672.336 1.716.684 3.132 1.044 1.44.36 2.628.732 3.564 1.116.936.384 1.74.984 2.412 1.8.696.792 1.056 1.848 1.08 3.168 0 1.152-.324 2.184-.972 3.096-.624.912-1.536 1.632-2.736 2.16-1.176.504-2.556.756-4.14.756Zm17.853-16.128v9.648c0 .672.156 1.164.468 1.476.336.288.888.432 1.656.432h2.34V29h-3.168c-4.248 0-6.372-2.064-6.372-6.192v-9.612h-2.376v-4.14h2.376V4.124h5.076v4.932h4.464v4.14h-4.464Z"/><path fill="#F0B70D" d="M136.583 3.872V29h-5.04V12.656L124.811 29h-3.816l-6.768-16.344V29h-5.04V3.872h5.724l7.992 18.684 7.992-18.684h5.688Zm3.687 15.084c0-2.016.396-3.804 1.188-5.364.816-1.56 1.908-2.76 3.276-3.6 1.392-.84 2.94-1.26 4.644-1.26 1.488 0 2.784.3 3.888.9 1.128.6 2.028 1.356 2.7 2.268V9.056h5.076V29h-5.076v-2.916c-.648.936-1.548 1.716-2.7 2.34-1.128.6-2.436.9-3.924.9-1.68 0-3.216-.432-4.608-1.296-1.368-.864-2.46-2.076-3.276-3.636-.792-1.584-1.188-3.396-1.188-5.436Zm15.696.072c0-1.224-.24-2.268-.72-3.132-.48-.888-1.128-1.56-1.944-2.016a5.096 5.096 0 0 0-2.628-.72c-.936 0-1.8.228-2.592.684-.792.456-1.44 1.128-1.944 2.016-.48.864-.72 1.896-.72 3.096 0 1.2.24 2.256.72 3.168.504.888 1.152 1.572 1.944 2.052.816.48 1.68.72 2.592.72.936 0 1.812-.228 2.628-.684a5.237 5.237 0 0 0 1.944-2.016c.48-.888.72-1.944.72-3.168Zm15.038-6.876a7.133 7.133 0 0 1 2.52-2.484c1.056-.6 2.256-.9 3.6-.9v5.292h-1.332c-1.584 0-2.784.372-3.6 1.116-.792.744-1.188 2.04-1.188 3.888V29h-5.04V9.056h5.04v3.096Zm15.383 1.044v9.648c0 .672.156 1.164.468 1.476.336.288.888.432 1.656.432h2.34V29h-3.168c-4.248 0-6.372-2.064-6.372-6.192v-9.612h-2.376v-4.14h2.376V4.124h5.076v4.932h4.464v4.14h-4.464Z"/></svg>