<svg width="58" height="64" viewBox="0 0 58 64" fill="none" xmlns="http://www.w3.org/2000/svg">
<path d="M24.4214 26.1629L24.4089 26.2066L15.6959 54.4359H10.288C9.9125 54.3983 9.54941 54.3607 9.19886 54.3107C6.16305 53.9288 4.12882 53.1652 4.12882 52.1574L1.86305 31.5395L0.0541992 26.1629H24.4214Z" fill="#E4E5E6"/>
<path d="M24.3525 26.3945L22.9692 30.87L15.6959 54.436H10.288C9.9125 54.3984 9.54941 54.3608 9.19886 54.3108C6.16305 53.9289 4.12882 53.1653 4.12882 52.1575L1.86305 31.5396L1.29962 29.8621L0.460988 27.371L0.0541992 26.163H23.7516L24.3525 26.3945Z" fill="#E4E5E6"/>
<path d="M25.3665 24.3038L24.4088 26.2067L15.6958 54.436H10.2879C9.91244 54.3984 9.54935 54.3608 9.19879 54.3108L19.6143 29.0047L20.7784 26.1629L22.0491 23.0834C22.2806 23.1397 22.4997 23.2023 22.7126 23.2648L25.3665 24.3038Z" fill="#D4D4D4"/>
<path d="M23.3227 23.5025C24.4236 23.8978 24.9347 25.1619 24.4089 26.2067C23.7418 27.5289 22.4986 28.4664 21.044 28.7441L20.0399 28.9358C19.9023 28.9609 19.7583 28.9797 19.6144 29.0048C17.7115 29.2989 15.5333 29.4742 13.2047 29.4742C10.7762 29.4742 7.40882 29.0986 7.40882 29.0986C6.16309 28.9296 5.03027 28.7043 4.04754 28.4351C1.86933 27.853 0.417143 27.0518 0.104183 26.163C0.0603303 26.0441 0.041687 25.9188 0.041687 25.7999C0.041687 23.7719 5.93159 22.1321 13.2048 22.1321C16.6099 22.1321 19.7358 22.4107 22.0492 23.0835C22.4613 23.2034 22.9018 23.3514 23.3227 23.5025Z" fill="white"/>
<path d="M24.6092 25.4057C24.6028 25.6748 24.5403 25.9502 24.4089 26.2067C24.0709 26.864 23.5952 27.4335 23.0194 27.8655C22.4434 28.3037 21.7675 28.6041 21.0413 28.7418L20.0399 28.9358C19.9023 28.9609 19.7583 28.9797 19.6144 29.0048C17.7115 29.2989 15.5333 29.4742 13.2047 29.4742C12.9043 29.4742 12.5851 29.4678 12.2658 29.4554C14.1124 29.4053 15.8463 29.2425 17.3923 29.0048C17.5362 28.9797 17.6802 28.9609 17.8179 28.9358L18.8194 28.7418C19.5517 28.6041 20.1524 28.1939 20.7973 27.8655C20.8117 27.8582 20.8261 27.8507 20.8403 27.8431C22.3257 27.0484 21.8027 24.7857 20.1276 24.6073C18.6707 24.452 17.0911 24.3666 15.4393 24.3666C8.39139 24.3666 2.6329 25.9126 2.29486 27.853C0.867727 27.2709 0.041626 26.5573 0.041626 25.7999C0.041626 23.8595 5.41823 22.2761 12.2472 22.1446C12.5601 22.1382 12.8792 22.1321 13.2047 22.1321C13.4614 22.1321 13.718 22.1321 13.9746 22.1382C14.1812 22.1382 14.3815 22.1446 14.588 22.1508C17.4485 22.2134 20.0525 22.5076 22.0491 23.0835C22.0679 23.0896 22.0867 23.0959 22.1055 23.1022C22.312 23.1523 22.5186 23.2085 22.7126 23.2649L23.3198 23.5028C24.1459 23.797 24.6467 24.592 24.6092 25.4057Z" fill="#D4D4D4"/>
<path d="M5.20168 38.9404C4.72001 38.9404 4.31001 38.572 4.26737 38.083L3.91161 33.9997C3.86668 33.4832 4.24887 33.0279 4.76553 32.9829C5.2822 32.9375 5.73728 33.3201 5.78234 33.8368L6.1381 37.9201C6.18303 38.4366 5.80083 38.8918 5.28418 38.9369C5.25653 38.9393 5.22904 38.9404 5.20168 38.9404Z" fill="white"/>
<path d="M56.2997 22.2323C56.2997 23.8346 51.768 25.1365 46.1786 25.1365C40.6015 25.1365 36.0761 23.841 36.0636 22.2386V22.2323C36.0636 22.0946 36.0949 21.9693 36.1576 21.8379C36.1638 21.8379 36.1638 21.8318 36.1638 21.8318C38.0541 13.92 40.8207 10.5025 40.8207 10.5025H51.5614C51.5614 10.5025 54.3406 13.9388 56.237 21.9068C56.237 21.9131 56.2433 21.9131 56.2433 21.9194C56.2558 21.9883 56.2746 22.0633 56.2934 22.1383C56.2934 22.1447 56.2934 22.1447 56.2934 22.1509C56.2997 22.1759 56.2997 22.2072 56.2997 22.2323Z" fill="#E4E5E6"/>
<path d="M57.9584 38.0305C57.9584 42.4933 57.6329 47.5571 56.8193 53.2719C56.8193 54.8678 52.3814 55.6691 46.7168 55.6691C46.2661 55.6691 45.8343 55.6691 45.4212 55.6628C45.2647 55.6565 45.1144 55.6565 44.9643 55.6503C44.8327 55.6503 44.7139 55.6503 44.5887 55.644C39.4936 55.5251 37.0651 54.9867 35.9196 54.5363C35.3125 54.2983 34.9119 53.71 34.9119 53.059V29.9316C34.9119 29.3184 34.9455 28.703 35.0241 28.0948C35.3045 25.9247 35.6623 23.9754 36.0635 22.2385C36.0761 23.8409 40.6015 25.1364 46.1786 25.1364C48.7886 25.1364 51.1734 24.8548 52.9698 24.3791C55.0166 23.8534 56.2997 23.0835 56.2997 22.2322C56.2997 22.2071 56.2997 22.1758 56.2935 22.1508C56.4186 22.6766 56.5375 23.2211 56.6503 23.7845C56.7004 24.0411 56.7504 24.3039 56.8005 24.5732C56.9069 25.1427 57.007 25.7248 57.1009 26.3258C57.1385 26.5698 57.176 26.8201 57.2136 27.0769C57.2449 27.2896 57.2762 27.5087 57.3013 27.7279C57.3575 28.1221 57.4076 28.5228 57.4577 28.9296C57.683 30.8951 57.8457 33.0294 57.9147 35.3453C57.9272 35.6332 57.9333 35.9274 57.9397 36.2154V36.228C57.9458 36.522 57.9523 36.8163 57.9523 37.1168C57.9584 37.4171 57.9584 37.7238 57.9584 38.0305Z" fill="#89CF6E"/>
<path d="M57.8145 43.3071C57.6455 46.3804 57.3264 49.6978 56.8194 53.272C56.8194 54.8679 52.3815 55.6692 46.7168 55.6692C40.1445 55.6692 37.2152 55.0432 35.9195 54.5364C35.3124 54.2984 34.9119 53.7101 34.9119 53.0591V45.7734L43.0176 46.3743C44.0129 46.4556 45.0707 46.4932 46.1598 46.4932C52.5066 46.4932 57.7394 45.066 57.8145 43.3071Z" fill="#E4E5E6"/>
<path d="M57.9584 38.0305C57.9584 42.4933 57.6329 47.5571 56.8194 53.2719C56.8194 54.8679 52.3815 55.6691 46.7168 55.6691C45.9595 55.6691 45.2523 55.6628 44.5887 55.644C49.4397 55.5001 53.0262 54.7051 53.0262 53.2719C53.8337 47.5634 54.1654 42.5059 54.1654 38.0494C54.1654 18.414 47.7621 10.5023 47.7621 10.5023H51.5615C51.5615 10.5023 57.9584 18.4077 57.9584 38.0305Z" fill="#D4D4D4"/>
<path d="M57.9584 38.0304C57.9584 39.7016 57.9147 41.4605 57.8144 43.3069C57.7768 44.2521 56.2496 45.0971 53.8587 45.6855C54.0714 42.9627 54.1654 40.4214 54.1654 38.0492C54.1654 32.6223 53.6772 28.0908 52.9698 24.3789C55.0166 23.8533 56.2997 23.0834 56.2997 22.2321C56.2997 22.207 56.2997 22.1757 56.2935 22.1506C56.4186 22.6764 56.5375 23.2209 56.6503 23.7843C56.7004 24.0409 56.7504 24.3038 56.8005 24.573C56.9069 25.1425 57.007 25.7246 57.1009 26.3256C57.1385 26.5697 57.176 26.82 57.2136 27.0767C57.2449 27.2894 57.2762 27.5086 57.3013 27.7277C57.3575 28.122 57.4076 28.5226 57.4578 28.9294C57.683 30.8949 57.8457 33.0293 57.9147 35.3452C57.9272 35.6331 57.9333 35.9272 57.9397 36.2153V36.2278C57.9458 36.5219 57.9523 36.8223 57.9523 37.1166C57.9584 37.417 57.9584 37.7237 57.9584 38.0304ZM40.9742 8.18924V10.7269C40.9742 11.5495 43.3652 12.2163 46.3147 12.2163C49.2643 12.2163 51.6553 11.5495 51.6553 10.7269V8.18924H40.9742Z" fill="#6DBF4D"/>
<path d="M46.3147 4.01294C50.1491 4.01294 53.2574 3.18548 53.2574 2.16475C53.2574 1.14402 50.1491 0.316559 46.3147 0.316559C42.4804 0.316559 39.372 1.14402 39.372 2.16475C39.372 3.18548 42.4804 4.01294 46.3147 4.01294Z" fill="#89CF6E"/>
<path d="M39.372 2.42883V7.26785C39.372 8.33719 42.4804 9.20406 46.3147 9.20406C50.1491 9.20406 53.2574 8.33719 53.2574 7.26785V2.42883H39.372Z" fill="#89CF6E"/>
<path d="M53.2578 2.16499C53.2578 3.18534 50.1468 4.01144 46.3162 4.01144C45.7653 4.01144 45.2271 3.99279 44.7075 3.96131C47.7684 3.76739 50.0404 3.03494 50.0404 2.16497C50.0404 1.295 47.7684 0.562562 44.7075 0.368642C45.2271 0.337308 45.7653 0.318512 46.3162 0.318512C50.1468 0.318531 53.2578 1.14465 53.2578 2.16499Z" fill="#6DBF4D"/>
<path d="M53.2578 2.42789V7.26629C53.2578 8.3366 50.1469 9.20657 46.3163 9.20657C45.7654 9.20657 45.2272 9.18778 44.7076 9.15018C47.7685 8.95 50.0405 8.18012 50.0405 7.26629V2.42789H53.2578ZM50.45 37.5416C50.45 39.3356 48.9791 40.79 47.1647 40.79C45.3504 40.79 43.8795 39.3356 43.8795 37.5416C43.8795 34.4655 47.1647 31.778 47.1647 31.778C47.1647 31.778 50.45 34.5184 50.45 37.5416Z" fill="#6DBF4D"/>
<path d="M49.4716 36.5632C49.4716 38.3572 48.0007 39.8115 46.1863 39.8115C44.372 39.8115 42.9011 38.3572 42.9011 36.5632C42.9011 33.4871 46.1863 30.7996 46.1863 30.7996C46.1863 30.7996 49.4716 33.54 49.4716 36.5632ZM37.5448 32.4453C37.0692 32.3694 36.7224 31.9409 36.7574 31.4513L37.0498 27.363C37.0869 26.8458 37.536 26.4566 38.0534 26.4935C38.5707 26.5301 38.9598 26.9797 38.9228 27.497L38.6304 31.5854C38.5934 32.1025 38.1442 32.4918 37.6269 32.4549C37.5992 32.4529 37.5718 32.4496 37.5448 32.4453Z" fill="white"/>
<path d="M36.1574 21.8376C36.1261 21.9691 36.0948 22.0944 36.0634 22.2321C36.0634 22.0944 36.0947 21.9691 36.1574 21.8376Z" fill="white"/>
<path d="M11.3798 55.5932L9.96637 58.427C15.04 61.7289 21.3317 63.6833 28.1463 63.6833C34.6295 63.6833 40.6394 61.9144 45.5774 58.8992L44.0835 55.8503L11.3798 55.5932Z" fill="#FF8D29"/>
<path d="M32.5664 26.3522L28.1113 14.9405L15.6 45.3547L15.5963 45.4575C16.2516 45.8859 16.6839 46.6211 16.6839 47.456C16.6839 48.7783 15.5998 49.8502 14.2625 49.8502C14.0953 49.8502 13.9321 49.8334 13.7745 49.8015L13.7521 49.8468L11.303 55.8004C15.9938 58.7469 21.8109 60.491 28.1113 60.491C34.1053 60.491 39.6618 58.9125 44.2273 56.2218L40.6014 46.9341L40.5401 46.9391C40.1539 47.1006 39.7292 47.19 39.2835 47.19C37.5004 47.19 36.0549 45.7608 36.0549 43.9977C36.0549 42.5938 36.9715 41.4015 38.2453 40.9741L38.2551 40.9241L34.3335 30.8789L34.2844 30.9207C33.9332 31.1168 33.5276 31.2287 33.0954 31.2287C31.7581 31.2287 30.674 30.1568 30.674 28.8345C30.674 27.6954 31.4786 26.7421 32.5565 26.4999L32.5664 26.3522Z" fill="#FFAD31"/>
<path d="M44.2256 56.2199C42.7985 57.0648 41.2713 57.7972 39.6689 58.4043L26.2365 19.4968L28.1143 14.94L32.5647 26.3506L32.5584 26.501C31.4819 26.745 30.6744 27.6964 30.6744 28.8356C30.6744 30.1563 31.7572 31.2266 33.0967 31.2266C33.5287 31.2266 33.9355 31.1139 34.286 30.9199L34.336 30.876L38.2543 40.9223L38.248 40.9723C36.9713 41.4041 36.0573 42.5935 36.0573 43.9955C36.0573 45.7607 37.5032 47.1877 39.2809 47.1877C39.7315 47.1877 40.1509 47.1001 40.539 46.9374L40.6015 46.9311L44.2256 56.2199Z" fill="#FF8D29"/>
<path d="M19.4746 42.4515C19.3555 42.4515 19.2345 42.4287 19.1178 42.3806C18.6382 42.1833 18.4093 41.6347 18.6066 41.1551L20.4807 36.5993C20.6778 36.1196 21.2272 35.8901 21.7061 36.0881C22.1856 36.2854 22.4146 36.834 22.2173 37.3136L20.3432 41.8694C20.194 42.2322 19.8438 42.4515 19.4746 42.4515Z" fill="#FFE8C4"/>
<path d="M26.0206 33.0561C26.9054 33.0561 27.6227 32.3468 27.6227 31.4719C27.6227 30.597 26.9054 29.8878 26.0206 29.8878C25.1357 29.8878 24.4184 30.597 24.4184 31.4719C24.4184 32.3468 25.1357 33.0561 26.0206 33.0561Z" fill="white"/>
<path d="M28.9579 40.4488C29.9903 40.4488 30.8271 39.6213 30.8271 38.6006C30.8271 37.5799 29.9903 36.7524 28.9579 36.7524C27.9256 36.7524 27.0887 37.5799 27.0887 38.6006C27.0887 39.6213 27.9256 40.4488 28.9579 40.4488Z" fill="white"/>
<path d="M24.6854 48.3697C26.0127 48.3697 27.0886 47.3058 27.0886 45.9934C27.0886 44.681 26.0127 43.6172 24.6854 43.6172C23.3581 43.6172 22.2822 44.681 22.2822 45.9934C22.2822 47.3058 23.3581 48.3697 24.6854 48.3697Z" fill="white"/>
<path d="M32.6962 55.2345C33.7285 55.2345 34.5653 54.407 34.5653 53.3863C34.5653 52.3655 33.7285 51.5381 32.6962 51.5381C31.6639 51.5381 30.827 52.3655 30.827 53.3863C30.827 54.407 31.6639 55.2345 32.6962 55.2345Z" fill="white"/>
</svg>
